<mxfile host="app.diagrams.net" agent="Mozilla/5.0 (Macintosh; Intel Mac OS X 10_15_7) AppleWebKit/537.36 (KHTML, like Gecko) Chrome/131.0.0.0 Safari/537.36" version="25.0.3">
  <diagram name="Page-1" id="GVJI8lOITwwQnEVaLbUg">
    <mxGraphModel dx="1122" dy="713" grid="1" gridSize="10" guides="1" tooltips="1" connect="1" arrows="1" fold="1" page="1" pageScale="1" pageWidth="827" pageHeight="1169" math="0" shadow="0">
      <root>
        <mxCell id="0" />
        <mxCell id="1" parent="0" />
        <mxCell id="HxOUdIhnMgnQB8X2I9nK-7" style="edgeStyle=orthogonalEdgeStyle;rounded=0;orthogonalLoop=1;jettySize=auto;html=1;exitX=0.5;exitY=1;exitDx=0;exitDy=0;exitPerimeter=0;entryX=0.5;entryY=0;entryDx=0;entryDy=0;" edge="1" parent="1" source="HxOUdIhnMgnQB8X2I9nK-1" target="HxOUdIhnMgnQB8X2I9nK-2">
          <mxGeometry relative="1" as="geometry" />
        </mxCell>
        <mxCell id="HxOUdIhnMgnQB8X2I9nK-1" value="Start" style="strokeWidth=2;html=1;shape=mxgraph.flowchart.terminator;whiteSpace=wrap;" vertex="1" parent="1">
          <mxGeometry x="30" y="20" width="150" height="60" as="geometry" />
        </mxCell>
        <mxCell id="HxOUdIhnMgnQB8X2I9nK-17" value="" style="edgeStyle=orthogonalEdgeStyle;rounded=0;orthogonalLoop=1;jettySize=auto;html=1;" edge="1" parent="1" source="HxOUdIhnMgnQB8X2I9nK-2" target="HxOUdIhnMgnQB8X2I9nK-16">
          <mxGeometry relative="1" as="geometry" />
        </mxCell>
        <mxCell id="HxOUdIhnMgnQB8X2I9nK-2" value="Input Username&lt;div&gt;and Password&lt;/div&gt;" style="shape=parallelogram;perimeter=parallelogramPerimeter;whiteSpace=wrap;html=1;fixedSize=1;" vertex="1" parent="1">
          <mxGeometry x="45" y="100" width="120" height="60" as="geometry" />
        </mxCell>
        <mxCell id="HxOUdIhnMgnQB8X2I9nK-3" value="Authenticate User" style="rounded=0;whiteSpace=wrap;html=1;" vertex="1" parent="1">
          <mxGeometry x="45" y="290" width="120" height="60" as="geometry" />
        </mxCell>
        <mxCell id="HxOUdIhnMgnQB8X2I9nK-10" style="edgeStyle=orthogonalEdgeStyle;rounded=0;orthogonalLoop=1;jettySize=auto;html=1;exitX=0.5;exitY=1;exitDx=0;exitDy=0;exitPerimeter=0;entryX=0.5;entryY=0;entryDx=0;entryDy=0;" edge="1" parent="1" source="HxOUdIhnMgnQB8X2I9nK-4" target="HxOUdIhnMgnQB8X2I9nK-5">
          <mxGeometry relative="1" as="geometry" />
        </mxCell>
        <mxCell id="HxOUdIhnMgnQB8X2I9nK-11" value="Yes" style="edgeLabel;html=1;align=center;verticalAlign=middle;resizable=0;points=[];" vertex="1" connectable="0" parent="HxOUdIhnMgnQB8X2I9nK-10">
          <mxGeometry x="-0.2" relative="1" as="geometry">
            <mxPoint as="offset" />
          </mxGeometry>
        </mxCell>
        <mxCell id="HxOUdIhnMgnQB8X2I9nK-14" style="edgeStyle=orthogonalEdgeStyle;rounded=0;orthogonalLoop=1;jettySize=auto;html=1;exitX=1;exitY=0.5;exitDx=0;exitDy=0;exitPerimeter=0;entryX=1;entryY=0.5;entryDx=0;entryDy=0;" edge="1" parent="1" source="HxOUdIhnMgnQB8X2I9nK-4" target="HxOUdIhnMgnQB8X2I9nK-2">
          <mxGeometry relative="1" as="geometry">
            <Array as="points">
              <mxPoint x="210" y="430" />
              <mxPoint x="210" y="130" />
            </Array>
          </mxGeometry>
        </mxCell>
        <mxCell id="HxOUdIhnMgnQB8X2I9nK-15" value="No" style="edgeLabel;html=1;align=center;verticalAlign=middle;resizable=0;points=[];" vertex="1" connectable="0" parent="HxOUdIhnMgnQB8X2I9nK-14">
          <mxGeometry x="0.0258" y="-2" relative="1" as="geometry">
            <mxPoint as="offset" />
          </mxGeometry>
        </mxCell>
        <mxCell id="HxOUdIhnMgnQB8X2I9nK-4" value="Authentication&lt;div&gt;Successful?&lt;/div&gt;" style="strokeWidth=2;html=1;shape=mxgraph.flowchart.decision;whiteSpace=wrap;" vertex="1" parent="1">
          <mxGeometry x="55" y="380" width="100" height="100" as="geometry" />
        </mxCell>
        <mxCell id="HxOUdIhnMgnQB8X2I9nK-5" value="Load User Dashboard" style="rounded=0;whiteSpace=wrap;html=1;" vertex="1" parent="1">
          <mxGeometry x="45" y="540" width="120" height="60" as="geometry" />
        </mxCell>
        <mxCell id="HxOUdIhnMgnQB8X2I9nK-9" style="edgeStyle=orthogonalEdgeStyle;rounded=0;orthogonalLoop=1;jettySize=auto;html=1;exitX=0.5;exitY=1;exitDx=0;exitDy=0;entryX=0.5;entryY=0;entryDx=0;entryDy=0;entryPerimeter=0;" edge="1" parent="1" source="HxOUdIhnMgnQB8X2I9nK-3" target="HxOUdIhnMgnQB8X2I9nK-4">
          <mxGeometry relative="1" as="geometry" />
        </mxCell>
        <mxCell id="HxOUdIhnMgnQB8X2I9nK-12" style="edgeStyle=orthogonalEdgeStyle;rounded=0;orthogonalLoop=1;jettySize=auto;html=1;exitX=0.5;exitY=1;exitDx=0;exitDy=0;entryX=0.5;entryY=0;entryDx=0;entryDy=0;entryPerimeter=0;" edge="1" parent="1" source="HxOUdIhnMgnQB8X2I9nK-6">
          <mxGeometry relative="1" as="geometry">
            <mxPoint x="105" y="695" as="targetPoint" />
          </mxGeometry>
        </mxCell>
        <mxCell id="HxOUdIhnMgnQB8X2I9nK-18" value="" style="edgeStyle=orthogonalEdgeStyle;rounded=0;orthogonalLoop=1;jettySize=auto;html=1;" edge="1" parent="1" source="HxOUdIhnMgnQB8X2I9nK-16" target="HxOUdIhnMgnQB8X2I9nK-3">
          <mxGeometry relative="1" as="geometry" />
        </mxCell>
        <mxCell id="HxOUdIhnMgnQB8X2I9nK-16" value="Verify Recaptcha" style="rounded=0;whiteSpace=wrap;html=1;" vertex="1" parent="1">
          <mxGeometry x="45" y="200" width="120" height="60" as="geometry" />
        </mxCell>
        <mxCell id="HxOUdIhnMgnQB8X2I9nK-19" value="" style="edgeStyle=orthogonalEdgeStyle;rounded=0;orthogonalLoop=1;jettySize=auto;html=1;exitX=0.5;exitY=1;exitDx=0;exitDy=0;entryX=0.5;entryY=0;entryDx=0;entryDy=0;entryPerimeter=0;" edge="1" parent="1" source="HxOUdIhnMgnQB8X2I9nK-5" target="HxOUdIhnMgnQB8X2I9nK-6">
          <mxGeometry relative="1" as="geometry">
            <mxPoint x="105" y="600" as="sourcePoint" />
            <mxPoint x="105" y="695" as="targetPoint" />
          </mxGeometry>
        </mxCell>
        <mxCell id="HxOUdIhnMgnQB8X2I9nK-6" value="End" style="strokeWidth=2;html=1;shape=mxgraph.flowchart.terminator;whiteSpace=wrap;" vertex="1" parent="1">
          <mxGeometry x="30" y="640" width="150" height="60" as="geometry" />
        </mxCell>
        <mxCell id="HxOUdIhnMgnQB8X2I9nK-29" value="" style="edgeStyle=orthogonalEdgeStyle;rounded=0;orthogonalLoop=1;jettySize=auto;html=1;" edge="1" parent="1" source="HxOUdIhnMgnQB8X2I9nK-20" target="HxOUdIhnMgnQB8X2I9nK-21">
          <mxGeometry relative="1" as="geometry" />
        </mxCell>
        <mxCell id="HxOUdIhnMgnQB8X2I9nK-20" value="Start" style="strokeWidth=2;html=1;shape=mxgraph.flowchart.terminator;whiteSpace=wrap;" vertex="1" parent="1">
          <mxGeometry x="310" y="20" width="150" height="60" as="geometry" />
        </mxCell>
        <mxCell id="HxOUdIhnMgnQB8X2I9nK-30" value="" style="edgeStyle=orthogonalEdgeStyle;rounded=0;orthogonalLoop=1;jettySize=auto;html=1;" edge="1" parent="1" source="HxOUdIhnMgnQB8X2I9nK-21" target="HxOUdIhnMgnQB8X2I9nK-22">
          <mxGeometry relative="1" as="geometry" />
        </mxCell>
        <mxCell id="HxOUdIhnMgnQB8X2I9nK-21" value="Check User Authentication" style="rounded=0;whiteSpace=wrap;html=1;" vertex="1" parent="1">
          <mxGeometry x="325" y="110" width="120" height="60" as="geometry" />
        </mxCell>
        <mxCell id="HxOUdIhnMgnQB8X2I9nK-31" value="" style="edgeStyle=orthogonalEdgeStyle;rounded=0;orthogonalLoop=1;jettySize=auto;html=1;" edge="1" parent="1" source="HxOUdIhnMgnQB8X2I9nK-22" target="HxOUdIhnMgnQB8X2I9nK-25">
          <mxGeometry relative="1" as="geometry" />
        </mxCell>
        <mxCell id="HxOUdIhnMgnQB8X2I9nK-35" value="Yes" style="edgeLabel;html=1;align=center;verticalAlign=middle;resizable=0;points=[];" vertex="1" connectable="0" parent="HxOUdIhnMgnQB8X2I9nK-31">
          <mxGeometry x="-0.5318" y="2" relative="1" as="geometry">
            <mxPoint as="offset" />
          </mxGeometry>
        </mxCell>
        <mxCell id="HxOUdIhnMgnQB8X2I9nK-22" value="User Logged&lt;div&gt;In?&lt;/div&gt;" style="strokeWidth=2;html=1;shape=mxgraph.flowchart.decision;whiteSpace=wrap;" vertex="1" parent="1">
          <mxGeometry x="335" y="200" width="100" height="100" as="geometry" />
        </mxCell>
        <mxCell id="HxOUdIhnMgnQB8X2I9nK-32" value="" style="edgeStyle=orthogonalEdgeStyle;rounded=0;orthogonalLoop=1;jettySize=auto;html=1;" edge="1" parent="1" source="HxOUdIhnMgnQB8X2I9nK-25" target="HxOUdIhnMgnQB8X2I9nK-26">
          <mxGeometry relative="1" as="geometry" />
        </mxCell>
        <mxCell id="HxOUdIhnMgnQB8X2I9nK-25" value="Load User Groups and Events&amp;nbsp;" style="rounded=0;whiteSpace=wrap;html=1;" vertex="1" parent="1">
          <mxGeometry x="325" y="330" width="120" height="60" as="geometry" />
        </mxCell>
        <mxCell id="HxOUdIhnMgnQB8X2I9nK-33" value="" style="edgeStyle=orthogonalEdgeStyle;rounded=0;orthogonalLoop=1;jettySize=auto;html=1;" edge="1" parent="1" source="HxOUdIhnMgnQB8X2I9nK-26" target="HxOUdIhnMgnQB8X2I9nK-27">
          <mxGeometry relative="1" as="geometry" />
        </mxCell>
        <mxCell id="HxOUdIhnMgnQB8X2I9nK-26" value="Dispay Dashboard" style="rounded=0;whiteSpace=wrap;html=1;" vertex="1" parent="1">
          <mxGeometry x="325" y="430" width="120" height="60" as="geometry" />
        </mxCell>
        <mxCell id="HxOUdIhnMgnQB8X2I9nK-34" value="" style="edgeStyle=orthogonalEdgeStyle;rounded=0;orthogonalLoop=1;jettySize=auto;html=1;" edge="1" parent="1" source="HxOUdIhnMgnQB8X2I9nK-27" target="HxOUdIhnMgnQB8X2I9nK-28">
          <mxGeometry relative="1" as="geometry" />
        </mxCell>
        <mxCell id="HxOUdIhnMgnQB8X2I9nK-27" value="User Interaction (Events, Groups, Chat)" style="rounded=0;whiteSpace=wrap;html=1;" vertex="1" parent="1">
          <mxGeometry x="325" y="530" width="120" height="60" as="geometry" />
        </mxCell>
        <mxCell id="HxOUdIhnMgnQB8X2I9nK-28" value="End" style="strokeWidth=2;html=1;shape=mxgraph.flowchart.terminator;whiteSpace=wrap;" vertex="1" parent="1">
          <mxGeometry x="310" y="640" width="150" height="60" as="geometry" />
        </mxCell>
      </root>
    </mxGraphModel>
  </diagram>
</mxfile>
